<svg xmlns="http://www.w3.org/2000/svg" version="1.1" xmlns:xlink="http://www.w3.org/1999/xlink" xmlns:svgjs="http://svgjs.dev/svgjs" width="1500" height="1687" viewBox="0 0 1500 1687"><g transform="matrix(1,0,0,1,0.00002668866648036783,0)"><svg viewBox="0 0 320 360" data-background-color="#ffffff" preserveAspectRatio="xMidYMid meet" height="1687" width="1500" xmlns="http://www.w3.org/2000/svg" xmlns:xlink="http://www.w3.org/1999/xlink"><g id="tight-bounds" transform="matrix(1,0,0,1,0.000005693582238563977,0)"><svg viewBox="0 0 320 360" height="360" width="320"><g><svg></svg></g><g><svg viewBox="0 0 320 360" height="360" width="320"><g><path transform="translate(-8.74414,11.24127) scale(3.37517,3.37517)" d="M89.9 29.89c-2.6-3.17-7.52-4.8-12.74-6.52-2.24-0.74-4.55-1.51-6.81-2.44-2.28-0.94-4.52-2.15-6.7-3.31-4.43-2.38-9.01-4.84-13.66-4.84-4.64 0-9.22 2.46-13.65 4.84-2.18 1.17-4.43 2.38-6.71 3.32-2.25 0.93-4.57 1.69-6.81 2.44-5.22 1.73-10.14 3.36-12.74 6.52-3.47 4.23-3.39 10.5-3.31 17.13 0.01 1 0.02 1.99 0.02 2.97 0 0.98-0.01 1.97-0.03 2.97-0.08 6.64-0.16 12.9 3.31 17.14 2.6 3.16 7.52 4.79 12.73 6.52 2.24 0.74 4.55 1.51 6.82 2.44 2.28 0.94 4.52 2.14 6.69 3.31 4.44 2.39 9.02 4.85 13.66 4.85 4.65 0 9.23-2.46 13.66-4.84 2.18-1.17 4.42-2.38 6.7-3.31 2.25-0.93 4.55-1.69 6.78-2.43 5.25-1.74 10.17-3.37 12.77-6.53 3.47-4.23 3.39-10.5 3.31-17.13-0.01-1.01-0.03-2-0.03-2.98 0-0.98 0.01-1.97 0.03-2.96 0.11-6.66 0.19-12.93-3.29-17.16zM93.12 27.25c-4.66-5.68-13.57-7.03-21.18-10.17-6.81-2.8-13.74-8.47-21.94-8.47-8.2 0-15.13 5.67-21.94 8.47-7.62 3.14-16.52 4.49-21.18 10.17-5.06 6.16-4.24 14.85-4.24 22.75 0 7.89-0.82 16.59 4.23 22.75 4.66 5.68 13.57 7.03 21.18 10.17 6.81 2.81 13.74 8.47 21.94 8.47 8.2 0 15.13-5.66 21.94-8.47 7.62-3.14 16.52-4.49 21.18-10.17 5.05-6.16 4.23-14.85 4.23-22.75 0.02-7.9 0.84-16.59-4.22-22.75zM94.4 52.94c0.09 6.88 0.17 13.35-3.58 17.92-2.82 3.43-7.9 5.12-13.28 6.9-2.24 0.74-4.53 1.5-6.73 2.41-2.22 0.91-4.43 2.1-6.57 3.25-4.58 2.46-9.29 4.99-14.24 4.99-4.95 0-9.66-2.53-14.22-4.98-2.15-1.16-4.37-2.35-6.59-3.26-2.23-0.92-4.52-1.68-6.74-2.41-5.39-1.78-10.47-3.47-13.28-6.9-3.74-4.56-3.66-11.04-3.58-17.9 0.01-1 0.03-1.98 0.03-2.96 0-0.98-0.01-1.96-0.02-2.96-0.09-6.86-0.17-13.34 3.58-17.9 2.82-3.43 7.9-5.11 13.28-6.9 2.23-0.74 4.52-1.5 6.74-2.41 2.22-0.92 4.44-2.11 6.59-3.26 4.56-2.45 9.28-4.99 14.22-4.99 4.94 0 9.66 2.53 14.22 4.98 2.15 1.16 4.37 2.35 6.59 3.26 2.22 0.92 4.52 1.67 6.73 2.41 5.38 1.78 10.47 3.47 13.28 6.9 3.75 4.57 3.67 11.04 3.58 17.9-0.01 1.01-0.03 1.99-0.03 2.96 0 0.98 0.01 1.96 0.02 2.95z" fill="#f9cacf" fill-rule="nonzero" stroke="none" stroke-width="1" stroke-linecap="butt" stroke-linejoin="miter" stroke-miterlimit="10" stroke-dasharray="" stroke-dashoffset="0" font-family="none" font-weight="none" font-size="none" text-anchor="none" style="mix-blend-mode: normal" data-fill-palette-color="tertiary"></path></g><g transform="matrix(1,0,0,1,101.62153841270158,108)"><svg viewBox="0 0 116.75692317459684 144" height="144" width="116.75692317459684"><g><svg viewBox="0 0 116.75692317459684 144" height="144" width="116.75692317459684"><g><svg viewBox="0 0 192 236.7996624804469" height="144" width="116.75692317459684"><g transform="matrix(1,0,0,1,0,163.86111499441338)"><svg viewBox="0 0 192 72.9385474860335" height="72.9385474860335" width="192"><g id="textblocktransform"><svg viewBox="0 0 192 72.9385474860335" height="72.9385474860335" width="192" id="textblock"><g><svg viewBox="0 0 192 72.9385474860335" height="72.9385474860335" width="192"><g transform="matrix(1,0,0,1,0,0)"><svg width="192" viewBox="2.25 -33.5 89.5 34" height="72.9385474860335" data-palette-color="#ffffff"><path d="M2.25 0L2.25-0.5 2.5-0.5Q2.9-0.5 3.2-0.78 3.5-1.05 3.73-1.45 3.95-1.85 4.08-2.3 4.2-2.75 4.2-3.15L4.2-3.15 4.2-29.9Q4.2-30.25 4.08-30.7 3.95-31.15 3.73-31.55 3.5-31.95 3.2-32.23 2.9-32.5 2.5-32.5L2.5-32.5 2.25-32.5 2.25-33 21.5-33 21.5-28.35 21-28.35Q20.9-29.5 20.1-30.38 19.3-31.25 17.6-31.25L17.6-31.25 7.55-31.25 7.55-18.6 15.85-18.6Q17-18.6 17.78-19.3 18.55-20 18.55-20.95L18.55-20.95 19.05-20.95 19.05-14.7 18.55-14.7Q18.55-15.6 17.8-16.25 17.05-16.9 15.85-16.9L15.85-16.9 7.55-16.9 7.55-1.75 18.5-1.75Q19.45-1.75 20.15-2.2 20.85-2.65 21.33-3.28 21.8-3.9 22.03-4.63 22.25-5.35 22.25-5.85L22.25-5.85 22.75-5.85 22.75 0 2.25 0ZM54.05-5.45L56.2-3.7Q57.25-2.8 58.2-2.1L58.2-2.1Q59.05-1.5 59.95-1 60.85-0.5 61.55-0.5L61.55-0.5 61.55 0 58.75 0Q56.85 0 55.4-0.73 53.95-1.45 52.65-2.45L52.65-2.45 47.7-6.35Q45-2.7 42.12-1.13 39.25 0.45 35.75 0.45L35.75 0.45Q33.5 0.45 31.72-0.23 29.95-0.9 28.72-2.02 27.5-3.15 26.85-4.65 26.2-6.15 26.2-7.75L26.2-7.75Q26.2-11.2 27.95-13.63 29.7-16.05 33.8-18L33.8-18Q31.4-20 30.1-21.95 28.8-23.9 28.8-26L28.8-26Q28.8-27.45 29.35-28.75 29.9-30.05 30.9-31.03 31.9-32 33.22-32.58 34.55-33.15 36.15-33.15L36.15-33.15Q38.05-33.15 39.5-32.5 40.95-31.85 41.95-30.8 42.95-29.75 43.45-28.38 43.95-27 43.95-25.6L43.95-25.6Q43.95-23.75 42.8-21.75 41.65-19.75 38.8-18.1L38.8-18.1Q41.1-16.2 43.55-14.15 46-12.1 48.4-10.2L48.4-10.2Q49.4-12.2 50.02-14.2 50.65-16.2 51.02-17.88 51.4-19.55 51.52-20.8 51.65-22.05 51.65-22.6L51.65-22.6Q51.65-23.25 51.15-23.78 50.65-24.3 50.05-24.3L50.05-24.3 50.05-24.8 55.2-24.8 55.2-24.3Q54.7-24.3 54.17-23.83 53.65-23.35 53.55-22.65L53.55-22.65Q53.25-20.05 52.7-17.6L52.7-17.6Q52.25-15.5 51.5-13.2 50.75-10.9 49.65-9.2L49.65-9.2Q50.65-8.25 51.8-7.3 52.95-6.35 54.05-5.45L54.05-5.45ZM31.9-26.15L31.9-26.15Q32.25-24.4 33.85-22.7 35.45-21 37.3-19.45L37.3-19.45Q39.25-20.25 40.3-21.88 41.35-23.5 41.35-25.05L41.35-25.05Q41.35-26.25 40.97-27.4 40.6-28.55 39.87-29.48 39.15-30.4 38.02-30.98 36.9-31.55 35.4-31.55L35.4-31.55Q33.75-31.55 32.77-30.25 31.8-28.95 31.8-27.15L31.8-27.15Q31.8-26.9 31.8-26.65 31.8-26.4 31.9-26.15ZM37.2-1.3L37.2-1.3Q39.65-1.3 42.07-3 44.5-4.7 46.5-7.4L46.5-7.4Q43.75-9.7 40.9-12.08 38.05-14.45 35.3-16.7L35.3-16.7Q32.25-15.25 30.8-13.1 29.35-10.95 29.35-8.75L29.35-8.75Q29.35-7.4 29.95-6.1 30.55-4.8 31.6-3.75 32.65-2.7 34.1-2.02 35.55-1.35 37.2-1.3ZM82.5-31.7L82.5-31.7Q78.8-31.7 76.07-30.38 73.35-29.05 71.55-26.93 69.75-24.8 68.87-22.15 68-19.5 68-16.9L68-16.9Q68-13.95 69.15-11.13 70.3-8.3 72.32-6.13 74.35-3.95 77.05-2.63 79.75-1.3 82.9-1.3L82.9-1.3Q83.8-1.3 85.02-1.5 86.25-1.7 87.45-2.27 88.65-2.85 89.67-3.9 90.7-4.95 91.25-6.65L91.25-6.65 91.75-6.65 91.75-1.1Q91-1.1 90.17-0.9 89.35-0.7 88.35-0.45L88.35-0.45Q87.05-0.1 85.47 0.2 83.9 0.5 82.15 0.5L82.15 0.5Q77.8 0.5 74.5-1 71.2-2.5 69-4.9 66.8-7.3 65.7-10.33 64.6-13.35 64.6-16.45L64.6-16.45Q64.6-19.55 65.7-22.6 66.8-25.65 69.05-28.08 71.3-30.5 74.7-32 78.1-33.5 82.7-33.5L82.7-33.5Q84.35-33.5 85.67-33.2 87-32.9 88.05-32.6L88.05-32.6Q88.8-32.35 89.42-32.23 90.05-32.1 90.65-32.1L90.65-32.1 90.65-26.55 90.15-26.55Q89.85-28.1 89.05-29.13 88.25-30.15 87.17-30.7 86.1-31.25 84.87-31.48 83.65-31.7 82.5-31.7Z" opacity="1" transform="matrix(1,0,0,1,0,0)" fill="#ffffff" class="wordmark-text-0" data-fill-palette-color="quaternary" id="text-0"></path></svg></g></svg></g></svg></g></svg></g><g transform="matrix(1,0,0,1,32.88617559347962,0)"><svg viewBox="0 0 126.22764881304076 153.21763039106142" height="153.21763039106142" width="126.22764881304076"><g><svg xmlns="http://www.w3.org/2000/svg" xmlns:xlink="http://www.w3.org/1999/xlink" version="1.1" x="0" y="0" viewBox="6.235833944437787 1.7499996487065232 80.04902212921374 97.16509497792896" enable-background="new 0 0 100 100" xml:space="preserve" height="153.21763039106142" width="126.22764881304076" class="icon-icon-0" data-fill-palette-color="quaternary" id="icon-0"><g fill="#ffffff" data-fill-palette-color="quaternary"><path fill="none" d="M37.866 35.792c0 0 0.396-0.784-0.369-0.748-0.764 0.034-0.371 0.748-0.371 0.748s-0.72-0.464-0.825 0.121c-0.106 0.586 0.596 0.583 0.596 0.583s-0.642 0.554-0.141 0.822c0.501 0.268 0.739-0.388 0.739-0.388 0-0.001 0.071 0.812 0.739 0.388 0.668-0.425-0.14-0.822-0.14-0.822s0.803 0.049 0.597-0.583C38.487 35.281 37.866 35.792 37.866 35.792z"></path><path fill="none" d="M37.401 31.225c0 0 0.701-1.396-0.658-1.333-1.36 0.063-0.657 1.333-0.657 1.333s-1.286-0.83-1.472 0.214c-0.188 1.041 1.063 1.038 1.063 1.038s-1.143 0.988-0.251 1.464c0.893 0.477 1.316-0.691 1.316-0.691s0.125 1.449 1.316 0.691c1.19-0.757-0.251-1.464-0.251-1.464s1.43 0.086 1.064-1.038C38.507 30.313 37.401 31.225 37.401 31.225z"></path><path fill="none" d="M27.104 33.75l7.332 2.269c-0.892-4.431-3.212-8.449-3.212-8.449L27.104 33.75z"></path><path fill="none" d="M39.547 30.144c0 0-0.642 0.556-0.142 0.822 0.501 0.269 0.738-0.388 0.738-0.388s0.072 0.813 0.739 0.388c0.668-0.424-0.14-0.822-0.14-0.822s0.804 0.049 0.597-0.583c-0.205-0.632-0.827-0.121-0.827-0.121s0.396-0.783-0.369-0.747c-0.763 0.034-0.369 0.747-0.369 0.747s-0.72-0.464-0.825 0.121C38.845 30.147 39.547 30.144 39.547 30.144z"></path><path fill="none" d="M41.39 36.99c0 0 0.396-0.783-0.369-0.748-0.763 0.036-0.369 0.748-0.369 0.748s-0.721-0.464-0.826 0.121 0.598 0.583 0.598 0.583-0.642 0.554-0.142 0.822c0.5 0.268 0.738-0.388 0.738-0.388s0.071 0.814 0.739 0.388c0.667-0.424-0.141-0.822-0.141-0.822s0.805 0.049 0.599-0.583S41.39 36.99 41.39 36.99z"></path><path fill="none" d="M55.871 62.356l-0.345-16.295-5.093-6.695 0.209-2.134 0.002-0.008 0.003-0.008c-0.487-1.548-0.455-5.069-1.815-6.103-1.71-1.298-1.965 1.646-2.266 3.038-1.756 8.135 3.99 14.735 3.906 22.861-0.055 5.273-3.357 9.566-4.687 14.533-1.422 5.311-2.305 10.867 3.264 13.82 2.827 1.5 6.138 2.008 9.397 2.295l-1.104-24.604L55.871 62.356z"></path><path fill="none" d="M41.651 32.947c0 0 0.681-1.352-0.638-1.291-1.318 0.061-0.639 1.291-0.639 1.291s-1.245-0.801-1.424 0.207c-0.183 1.011 1.031 1.006 1.031 1.006s-1.108 0.957-0.244 1.42c0.864 0.461 1.276-0.671 1.276-0.671s0.122 1.404 1.274 0.671c1.153-0.733-0.242-1.42-0.242-1.42s1.387 0.085 1.031-1.006C42.723 32.064 41.651 32.947 41.651 32.947z"></path><path fill="none" d="M76.677 26.662c0 0 1.479-0.464 1.072-1.237-0.405-0.773-1.625 0.109-1.625 0.109s0.424-1.384-0.839-1.153c-1.262 0.231-0.602 1.437-0.602 1.437s-1.446-0.572-1.59 0.524c-0.145 1.096 1.256 0.779 1.256 0.779s-1.204 0.946-0.144 1.477c1.059 0.532 1.376-0.955 1.376-0.955s0.493 1.07 1.5 0.388C78.089 27.349 76.677 26.662 76.677 26.662z"></path><path fill="none" d="M45.634 35.668c0.667-0.424-0.141-0.821-0.141-0.821s0.803 0.05 0.598-0.583c-0.206-0.631-0.826-0.12-0.826-0.12s0.394-0.783-0.369-0.748c-0.765 0.035-0.369 0.748-0.369 0.748s-0.721-0.466-0.827 0.12c-0.106 0.585 0.597 0.583 0.597 0.583s-0.642 0.554-0.142 0.821c0.501 0.268 0.74-0.388 0.74-0.388S44.965 36.095 45.634 35.668z"></path><path fill="none" d="M44.336 31.433c0 0 0.101 1.184 1.074 0.565 0.97-0.617-0.205-1.196-0.205-1.196s1.17 0.072 0.87-0.848c-0.3-0.918-1.202-0.174-1.202-0.174s0.575-1.139-0.537-1.087C43.225 28.744 43.8 29.78 43.8 29.78s-1.048-0.678-1.201 0.174c-0.155 0.852 0.867 0.848 0.867 0.848s-0.934 0.807-0.206 1.196C43.989 32.387 44.336 31.433 44.336 31.433z"></path><path d="M68.421 15.676c3.225 0 5.838-4.101 5.838-7.946 0-3.847-2.613-5.981-5.838-5.98-3.223 0-5.836 2.134-5.836 5.98C62.585 11.576 65.198 15.676 68.421 15.676z" fill="#ffffff" data-fill-palette-color="quaternary"></path><path d="M71.337 20.606c1.381-1.621 0.689-4.053 0-4.053-0.691 0-2.045 1.183-2.045 1.183H67.96c0 0-1.353-1.183-2.044-1.183-0.692 0-1.382 2.431 0 4.053 0.49 0.573 2.044-1.182 2.044-1.182h1.332C69.292 19.424 70.849 21.179 71.337 20.606z" fill="#ffffff" data-fill-palette-color="quaternary"></path><path d="M25.457 53.276c0.917 0.019 3.177 0.273 4.318 0.143 0 0 0.819-1.868 1.518-3.752 0 0-4.46 0.54-7.465-0.491-3.004-1.03-3.236-5.711-5.65-7.602-2.075-1.924-4.411-1.732-5.973-2.526-1.204-0.612-1.865-1.096-1.94-2.072-0.255-3.324 6.418-4.708 13.218-12.948 6.618-8.08 8.625-15.168 11.334-17.635-0.242 0.705-0.375 1.503-0.375 2.396 0 3.911 2.393 8.223 5.458 8.223 3.067 0 5.642-4.312 5.642-8.223 0-3.911-2.416-6.052-5.483-6.052-1.341 0-2.584 0.409-3.557 1.198l-0.342 0.436c-0.594 0.134-1.498 0.694-2.1 1.332-2.854 3.024-5.653 11.121-10.99 17.381-5.227 6.007-9.355 7.512-15.726 12.295-0.596 0.447-2.23 2.541 0.126 5.107 0.683 0.793 1.65 1.039 2.945 1.452 1.476 0.472 4.009 1.153 5.084 2.004 1.271 0.93 2.815 5.086 3.951 6.436C21.11 52.351 23.826 53.128 25.457 53.276z" fill="#ffffff" data-fill-palette-color="quaternary"></path><path d="M77.056 89.714c0.755-9.799 1.918-26.7 1.918-26.7l1.545-0.601 0.744-8.429 4.243-12.042v-1.968c0 0-0.048-16.264-4.172-19.566-1.325-1.061-6.311-1.062-6.311-1.062l-1.5-1.696-4.897 15.745-4.974-15.787-1.695 1.738c0 0-4.658-0.063-6.052 1.03-2.035 1.598-2.463 9.027-2.463 9.027-0.472-2.572-0.866-5.191-1.276-6.048-1.101-2.298-3.145-3.966-6.212-3.052l1.725 5.208c0 0-4.004-4.164-7.092 0.987l-0.091-0.007c-3.089-5.15-7.21-0.979-7.21-0.979l2.061-6.23c-3.069-0.915-5.408-1.747-6.508 0.551-0.773 1.613-7.402 15.879-6.113 16.96 3.469 2.905 13.254-0.928 11.894 6.224-0.979 5.146-5.106 9.399-4.377 14.924 0.446 3.382 2.93 5.278 4.614 8.023 4.916 8.016 1.599 21.169-7.276 24.966-1.842 0.789-16.93 5.604-8.562 6.314 0 0 16.995 1.656 25.557 1.671 3.342 0.005 10.093-0.188 17.205-0.614 0.009-0.092 0.015-0.186 0.028-0.277l0.025 0.273c11.506-0.691 23.938-1.998 24.416-4.082C86.726 92.142 82.258 90.693 77.056 89.714zM38.95 29.561c0.105-0.585 0.825-0.121 0.825-0.121s-0.395-0.713 0.369-0.747c0.765-0.036 0.369 0.747 0.369 0.747s0.622-0.511 0.827 0.121c0.207 0.632-0.597 0.583-0.597 0.583s0.809 0.398 0.14 0.822c-0.667 0.425-0.739-0.388-0.739-0.388s-0.237 0.657-0.738 0.388c-0.5-0.267 0.142-0.822 0.142-0.822S38.845 30.147 38.95 29.561zM27.104 33.75l4.12-6.18c0 0 2.32 4.019 3.212 8.449L27.104 33.75zM38.095 36.496c0 0 0.809 0.397 0.14 0.822-0.668 0.425-0.739-0.389-0.739-0.388 0 0-0.238 0.655-0.739 0.388-0.501-0.268 0.141-0.822 0.141-0.822s-0.703 0.003-0.596-0.583c0.105-0.585 0.825-0.121 0.825-0.121s-0.394-0.714 0.371-0.748c0.765-0.036 0.369 0.748 0.369 0.748s0.621-0.512 0.826 0.121C38.898 36.545 38.095 36.496 38.095 36.496zM37.808 32.477c0 0 1.441 0.708 0.251 1.464-1.191 0.758-1.316-0.691-1.316-0.691s-0.423 1.168-1.316 0.691c-0.892-0.477 0.251-1.464 0.251-1.464s-1.251 0.003-1.063-1.038c0.186-1.044 1.472-0.214 1.472-0.214s-0.703-1.271 0.657-1.333c1.359-0.062 0.658 1.333 0.658 1.333s1.106-0.912 1.472 0.214C39.238 32.563 37.808 32.477 37.808 32.477zM41.619 37.694c0 0 0.809 0.398 0.141 0.822-0.668 0.426-0.739-0.388-0.739-0.388s-0.238 0.656-0.738 0.388c-0.5-0.268 0.142-0.822 0.142-0.822s-0.703 0.002-0.598-0.583 0.826-0.121 0.826-0.121-0.394-0.712 0.369-0.748c0.765-0.035 0.369 0.748 0.369 0.748s0.621-0.512 0.827 0.121S41.619 37.694 41.619 37.694zM42.045 34.16c0 0 1.395 0.687 0.242 1.42-1.152 0.733-1.274-0.671-1.274-0.671s-0.412 1.132-1.276 0.671c-0.865-0.463 0.244-1.42 0.244-1.42s-1.213 0.004-1.031-1.006c0.18-1.008 1.424-0.207 1.424-0.207s-0.68-1.23 0.639-1.291c1.318-0.061 0.638 1.291 0.638 1.291s1.072-0.883 1.425 0.207C43.432 34.245 42.045 34.16 42.045 34.16zM43.261 31.998c-0.728-0.389 0.206-1.196 0.206-1.196s-1.021 0.004-0.867-0.848c0.152-0.852 1.201-0.174 1.201-0.174s-0.576-1.036 0.536-1.087c1.112-0.052 0.537 1.087 0.537 1.087s0.902-0.745 1.202 0.174c0.301 0.92-0.87 0.848-0.87 0.848s1.175 0.579 0.205 1.196c-0.973 0.619-1.074-0.565-1.074-0.565S43.989 32.387 43.261 31.998zM44.155 35.668c-0.5-0.267 0.142-0.821 0.142-0.821s-0.703 0.002-0.597-0.583c0.105-0.586 0.827-0.12 0.827-0.12s-0.396-0.713 0.369-0.748c0.763-0.036 0.369 0.748 0.369 0.748s0.62-0.511 0.826 0.12c0.206 0.633-0.598 0.583-0.598 0.583s0.808 0.397 0.141 0.821c-0.668 0.427-0.738-0.388-0.738-0.388S44.656 35.936 44.155 35.668zM49.05 85.366c-5.569-2.953-4.687-8.51-3.264-13.82 1.33-4.967 4.632-9.26 4.687-14.533 0.084-8.126-5.662-14.726-3.906-22.861 0.301-1.393 0.555-4.336 2.266-3.038 1.36 1.034 1.328 4.555 1.815 6.103l-0.003 0.008-0.002 0.008-0.209 2.134 5.093 6.695 0.345 16.295 1.472 0.7 1.104 24.604C55.188 87.374 51.877 86.866 49.05 85.366zM75.582 27.642c0 0-0.317 1.486-1.376 0.955-1.061-0.531 0.144-1.477 0.144-1.477s-1.4 0.317-1.256-0.779c0.144-1.096 1.59-0.524 1.59-0.524s-0.66-1.206 0.602-1.437c1.263-0.23 0.839 1.153 0.839 1.153s1.22-0.882 1.625-0.109c0.406 0.773-1.072 1.237-1.072 1.237s1.412 0.687 0.405 1.369C76.075 28.712 75.582 27.642 75.582 27.642z" fill="#ffffff" data-fill-palette-color="quaternary"></path><path d="M61.78 98.301c-0.005 0.055-0.017 0.106-0.017 0.163h0.087l-0.017-0.167-0.025-0.273C61.795 98.115 61.789 98.209 61.78 98.301z" fill="#ffffff" data-fill-palette-color="quaternary"></path><circle cx="68.57" cy="22.114" r="0.60" fill="#ffffff" data-fill-palette-color="quaternary"></circle><circle cx="68.57" cy="25.204" r="0.60" fill="#ffffff" data-fill-palette-color="quaternary"></circle><circle cx="68.57" cy="28.294" r="0.60" fill="#ffffff" data-fill-palette-color="quaternary"></circle><path d="M54.12 16.639h0.102c0.954-1.601 3.822-4.546 4.481-6.829 1.477-5.115-4.2-4.275-4.532-0.41H54.17c0-3.819-6.01-4.706-4.533 0.41C50.298 12.092 53.165 15.038 54.12 16.639z" fill="#ffffff" data-fill-palette-color="quaternary"></path></g></svg></g></svg></g><g></g></svg></g></svg></g></svg></g></svg></g><defs></defs></svg><rect width="320" height="360" fill="none" stroke="none" visibility="hidden"></rect></g></svg></g></svg>